<?xml version="1.0" encoding="utf-8"?>
<!-- Generator: Adobe Illustrator 17.0.0, SVG Export Plug-In . SVG Version: 6.00 Build 0)  -->
<!DOCTYPE svg PUBLIC "-//W3C//DTD SVG 1.1//EN" "http://www.w3.org/Graphics/SVG/1.1/DTD/svg11.dtd">
<svg version="1.1" id="Capa_1" xmlns="http://www.w3.org/2000/svg" xmlns:xlink="http://www.w3.org/1999/xlink" x="0px" y="0px"
	 width="512px" height="512px" viewBox="0 0 512 512" enable-background="new 0 0 512 512" xml:space="preserve">
<g>
	<g>
		<path d="M39.406,408.955l21.214-21.213c5.858-5.858,5.858-15.355,0-21.213c-5.856-5.858-15.354-5.857-21.213,0l-21.214,21.213
			c-5.858,5.858-5.858,15.355,0,21.213C24.052,414.813,33.548,414.813,39.406,408.955z M103.045,408.955
			c-5.857-5.858-15.355-5.858-21.213,0L4.394,486.393c-5.858,5.858-5.858,15.355,0,21.213c5.857,5.857,15.355,5.858,21.213,0
			l77.439-77.439C108.904,424.31,108.904,414.813,103.045,408.955z M510.332,14.396c-0.943-6.6-6.129-11.785-12.729-12.728
			c-1.613-0.23-40.128-5.535-93.6,4.063c-69.372,12.452-133.5,44.85-184.288,95.638c-13.546,13.546-28.461,30.109-43.173,47.939
			c-18.182-4.118-77.973-11.646-137.135,47.518c-52.43,52.429-22.514,83.552-21.214,84.852c2.813,2.813,6.628,4.394,10.606,4.394
			s7.794-1.581,10.606-4.393c8.5-8.5,19.8-13.181,31.819-13.181s23.32,4.681,31.818,13.18l31.82,31.819l-10.607,10.607
			c-17.586,17.584-17.59,46.05,0,63.638c17.584,17.585,46.051,17.589,63.638,0l10.607-10.607c0,0,31.777,31.778,31.835,31.835
			c17.529,17.547,17.524,46.082-0.016,63.622c-2.813,2.813-4.394,6.629-4.394,10.607c0,3.979,1.58,7.793,4.394,10.607
			c0.698,0.698,10.016,9.667,26.63,9.667c14.29,0,33.978-6.637,58.222-30.88c59.163-59.163,51.635-118.953,47.518-137.136
			c17.831-14.713,34.394-29.627,47.94-43.174c50.684-50.684,83.172-114.829,95.638-184.288
			C515.866,54.526,510.563,16.01,510.332,14.396z M71.227,238.498c-10.646,0-20.952,2.203-30.398,6.393
			c2.93-6.961,8.881-15.94,19.793-26.853c25.851-25.851,58.227-42.817,94.268-41.334c-18.486,24.438-35.261,49.548-46.828,71.45
			C96.943,241.865,84.348,238.498,71.227,238.498L71.227,238.498z M166.683,366.53c-5.86,5.861-15.349,5.862-21.212,0
			c-5.849-5.849-5.849-15.365,0-21.213l84.852-84.852c5.847-5.848,15.364-5.85,21.214,0c5.849,5.849,5.849,15.365,0,21.214
			L166.683,366.53z M293.961,451.381c-10.939,10.939-19.935,16.892-26.902,19.814c9.507-21.492,8.435-46.569-3.216-67.253
			c21.923-11.578,47.061-28.375,71.521-46.881C336.225,377.844,331.05,414.292,293.961,451.381z M389.419,271.071
			c-43.209,43.209-104.688,89.22-145.285,109.269l-24.418-24.418l53.032-53.032c17.586-17.585,17.59-46.051,0-63.639
			c-17.546-17.546-46.095-17.543-63.639,0l-53.032,53.032l-24.417-24.417c20.047-40.596,66.059-102.075,109.268-145.286
			c37.667-37.667,82.326-64.153,133.102-79.028l94.302,94.302C455.866,180.177,432.506,227.984,389.419,271.071z M476.478,103.576
			l-68.143-68.143c32.278-5.891,58.843-5.799,73.268-5.041C482.346,44.759,482.396,71.197,476.478,103.576L476.478,103.576z
			 M315.174,111.975c-23.448,23.447-23.453,61.401,0,84.852c23.391,23.391,61.453,23.396,84.852,0
			c23.394-23.394,23.394-61.458,0-84.853C376.578,88.529,338.626,88.523,315.174,111.975z M378.813,175.614
			c-11.697,11.697-30.728,11.697-42.426,0c-11.724-11.724-11.727-30.7,0-42.425c11.724-11.724,30.699-11.725,42.426,0
			C390.509,144.885,390.509,163.917,378.813,175.614z M124.259,451.381l-21.213,21.213c-5.858,5.858-5.858,15.355,0,21.213
			c5.857,5.857,15.355,5.858,21.213,0l21.213-21.213c5.858-5.858,5.858-15.355,0-21.213
			C139.614,445.522,130.116,445.522,124.259,451.381z"/>
	</g>
</g>
</svg>
